<svg width="680" height="185" viewBox="0 0 680 185" role="img" xmlns="http://www.w3.org/2000/svg">
  <title>oi, sou a mell!</title>
  <defs>
    <style>
      @import url('https://fonts.googleapis.com/css2?family=Press+Start+2P&amp;display=swap');
      .float { animation: popIn 0.6s cubic-bezier(0.34,1.56,0.64,1) forwards, floaty 3s ease-in-out infinite 0.6s; transform-origin: 340px 90px; opacity:0; }
      .txt   { animation: fadeIn 0.4s ease forwards 0.5s; opacity: 0; }
      .s1 { animation: sparkle 2.2s ease-in-out infinite 0.2s; transform-origin:  80px 42px; }
      .s2 { animation: sparkle 2.2s ease-in-out infinite 0.8s; transform-origin: 600px 35px; }
      .s3 { animation: sparkle 2.2s ease-in-out infinite 1.4s; transform-origin: 615px 140px; }
      .s4 { animation: sparkle 2.2s ease-in-out infinite 0.5s; transform-origin:  62px 140px; }
      .s5 { animation: sparkle 2.8s ease-in-out infinite 1.1s; transform-origin: 340px 15px; }
      .s6 { animation: sparkle 2.0s ease-in-out infinite 1.8s; transform-origin: 490px 170px; }
      .s7 { animation: sparkle 2.5s ease-in-out infinite 0.3s; transform-origin: 168px 170px; }
      @keyframes popIn  { 0%{transform:scale(0.4);opacity:0} 100%{transform:scale(1);opacity:1} }
      @keyframes fadeIn { to{opacity:1} }
      @keyframes floaty { 0%,100%{transform:translateY(0)} 50%{transform:translateY(-5px)} }
      @keyframes sparkle{ 0%,100%{opacity:0;transform:scale(0.3) rotate(0deg)} 50%{opacity:1;transform:scale(1) rotate(15deg)} }
    </style>
    <clipPath id="inner">
      <polygon points="116,38 124,38 124,30 556,30 556,38 564,38 564,158 556,158 556,166 124,166 124,158 116,158"/>
    </clipPath>
  </defs>

  <g class="s1"><line x1="80" y1="30" x2="80" y2="54" stroke="#ffb3c6" stroke-width="2.5" stroke-linecap="round"/><line x1="68" y1="42" x2="92" y2="42" stroke="#ffb3c6" stroke-width="2.5" stroke-linecap="round"/><line x1="71" y1="33" x2="89" y2="51" stroke="#ffb3c6" stroke-width="1.5" stroke-linecap="round"/><line x1="89" y1="33" x2="71" y2="51" stroke="#ffb3c6" stroke-width="1.5" stroke-linecap="round"/></g>
  <g class="s2"><line x1="600" y1="24" x2="600" y2="46" stroke="#ffd6e7" stroke-width="2" stroke-linecap="round"/><line x1="589" y1="35" x2="611" y2="35" stroke="#ffd6e7" stroke-width="2" stroke-linecap="round"/><line x1="592" y1="27" x2="608" y2="43" stroke="#ffd6e7" stroke-width="1.2" stroke-linecap="round"/><line x1="608" y1="27" x2="592" y2="43" stroke="#ffd6e7" stroke-width="1.2" stroke-linecap="round"/></g>
  <g class="s3"><line x1="615" y1="130" x2="615" y2="152" stroke="#f9a8b8" stroke-width="2" stroke-linecap="round"/><line x1="604" y1="141" x2="626" y2="141" stroke="#f9a8b8" stroke-width="2" stroke-linecap="round"/><line x1="607" y1="133" x2="623" y2="149" stroke="#f9a8b8" stroke-width="1.2" stroke-linecap="round"/><line x1="623" y1="133" x2="607" y2="149" stroke="#f9a8b8" stroke-width="1.2" stroke-linecap="round"/></g>
  <g class="s4"><line x1="62" y1="130" x2="62" y2="152" stroke="#ffb3c6" stroke-width="2" stroke-linecap="round"/><line x1="51" y1="141" x2="73" y2="141" stroke="#ffb3c6" stroke-width="2" stroke-linecap="round"/><line x1="54" y1="133" x2="70" y2="149" stroke="#ffb3c6" stroke-width="1.2" stroke-linecap="round"/><line x1="70" y1="133" x2="54" y2="149" stroke="#ffb3c6" stroke-width="1.2" stroke-linecap="round"/></g>
  <g class="s5"><line x1="340" y1="5" x2="340" y2="25" stroke="#ffd6e7" stroke-width="2" stroke-linecap="round"/><line x1="330" y1="15" x2="350" y2="15" stroke="#ffd6e7" stroke-width="2" stroke-linecap="round"/><line x1="333" y1="8" x2="347" y2="22" stroke="#ffd6e7" stroke-width="1.2" stroke-linecap="round"/><line x1="347" y1="8" x2="333" y2="22" stroke="#ffd6e7" stroke-width="1.2" stroke-linecap="round"/></g>
  <g class="s6"><line x1="490" y1="160" x2="490" y2="180" stroke="#f9a8b8" stroke-width="1.8" stroke-linecap="round"/><line x1="480" y1="170" x2="500" y2="170" stroke="#f9a8b8" stroke-width="1.8" stroke-linecap="round"/><line x1="483" y1="163" x2="497" y2="177" stroke="#f9a8b8" stroke-width="1" stroke-linecap="round"/><line x1="497" y1="163" x2="483" y2="177" stroke="#f9a8b8" stroke-width="1" stroke-linecap="round"/></g>
  <g class="s7"><line x1="168" y1="160" x2="168" y2="180" stroke="#ffb3c6" stroke-width="1.8" stroke-linecap="round"/><line x1="158" y1="170" x2="178" y2="170" stroke="#ffb3c6" stroke-width="1.8" stroke-linecap="round"/><line x1="161" y1="163" x2="175" y2="177" stroke="#ffb3c6" stroke-width="1" stroke-linecap="round"/><line x1="175" y1="163" x2="161" y2="177" stroke="#ffb3c6" stroke-width="1" stroke-linecap="round"/></g>

  <g class="float">
    <polygon points="122,44 130,44 130,36 558,36 558,44 566,44 566,164 558,164 558,172 130,172 130,164 122,164" fill="#1a0008" opacity="0.18" transform="translate(6,6)"/>
    <polygon points="116,38 124,38 124,30 556,30 556,38 564,38 564,158 556,158 556,166 124,166 124,158 116,158" fill="#f9a8b8"/>
    <rect x="548" y="38" width="14" height="120" fill="#d4708a" clip-path="url(#inner)"/>
    <rect x="124" y="148" width="438" height="16" fill="#d4708a" clip-path="url(#inner)"/>
    <rect x="130" y="38" width="18" height="8" rx="2" fill="#fff" opacity="0.75"/>
    <rect x="130" y="38" width="8" height="18" rx="2" fill="#fff" opacity="0.75"/>
  </g>

  <g class="txt">
    <text x="340" y="108" text-anchor="middle"
      font-family="'Press Start 2P', monospace"
      font-size="22" font-weight="700"
      fill="#7a1a38" letter-spacing="1">oi, sou a mell!</text>
  </g>
</svg>
